<?xml version="1.0" encoding="UTF-8" standalone="no"?>
<svg
   xmlns:dc="http://purl.org/dc/elements/1.1/"
   xmlns:cc="http://creativecommons.org/ns#"
   xmlns:rdf="http://www.w3.org/1999/02/22-rdf-syntax-ns#"
   xmlns:svg="http://www.w3.org/2000/svg"
   xmlns="http://www.w3.org/2000/svg"
   viewBox="0 0 1066.25 527.5"
   height="527.5"
   width="1066.25"
   xml:space="preserve"
   version="1.1"
   id="svg2"><metadata
     id="metadata8"><rdf:RDF><cc:Work
         rdf:about=""><dc:format>image/svg+xml</dc:format><dc:type
           rdf:resource="http://purl.org/dc/dcmitype/StillImage" /></cc:Work></rdf:RDF></metadata><defs
     id="defs6"><clipPath
       id="clipPath30"
       clipPathUnits="userSpaceOnUse"><path
         style="clip-rule:evenodd"
         id="path32"
         d="m 179,45 497,0 0,333 -497,0 0,-333 z" /></clipPath><clipPath
       id="clipPath274"
       clipPathUnits="userSpaceOnUse"><path
         style="clip-rule:evenodd"
         id="path276"
         d="m -1,-1 855,0 0,424 -855,0 0,-424 z" /></clipPath></defs><g
     transform="matrix(1.25,0,0,-1.25,0,527.5)"
     id="g10"><g
       transform="matrix(1,0,0,-1,0,422)"
       id="g12"><g
         id="g14"><g
           id="g16" /></g><g
         id="g18"><g
           id="g20"><path
             id="path22"
             style="fill:#ffffff;fill-opacity:1;fill-rule:nonzero;stroke:none"
             d="M 0,0 853,0 853,422 0,422 0,0 Z" /></g><g
           id="g24" /></g><g
         id="g26"><g
           clip-path="url(#clipPath30)"
           id="g28"><g
             id="g34"><path
               id="path36"
               style="fill:none;stroke:#000000;stroke-width:0.80000001;stroke-linecap:square;stroke-linejoin:bevel;stroke-miterlimit:2;stroke-dasharray:none;stroke-opacity:1"
               d="m 184.85294,75.794287 0,123.920803 237.72563,0 0,-123.920803 -237.72563,0" /><path
               id="path38"
               style="fill:none;stroke:#000000;stroke-width:0.80000001;stroke-linecap:round;stroke-linejoin:bevel;stroke-miterlimit:2;stroke-dasharray:none;stroke-opacity:1"
               d="m 254.82183,69.016147 -1.686,-1.685998 0,-3.371994 1.686,-1.685998 3.372,0 1.68599,1.685998 0,3.371994 -1.68599,1.685998 -3.372,0 z" /><path
               id="path40"
               style="fill:none;stroke:#000000;stroke-width:0.80000001;stroke-linecap:round;stroke-linejoin:bevel;stroke-miterlimit:2;stroke-dasharray:none;stroke-opacity:1"
               d="m 263.25182,69.016147 5.05799,0 1.686,-1.685998 -1.686,-1.685997 -3.37199,0 -1.686,-1.685997 1.686,-1.685998 5.05799,0" /><path
               id="path42"
               style="fill:none;stroke:#000000;stroke-width:0.80000001;stroke-linecap:round;stroke-linejoin:bevel;stroke-miterlimit:2;stroke-dasharray:none;stroke-opacity:1"
               d="m 280.11179,62.272157 -5.05799,0 -1.686,1.685998 0,3.371994 1.686,1.685998 5.05799,0" /><path
               id="path44"
               style="fill:none;stroke:#000000;stroke-width:0.80000001;stroke-linecap:round;stroke-linejoin:bevel;stroke-miterlimit:2;stroke-dasharray:none;stroke-opacity:1"
               d="m 283.48379,69.016147 0,-6.74399" /><path
               id="path46"
               style="fill:none;stroke:#000000;stroke-width:0.80000001;stroke-linecap:round;stroke-linejoin:bevel;stroke-miterlimit:2;stroke-dasharray:none;stroke-opacity:1"
               d="m 283.48379,60.58616 0,-1.685998" /><path
               id="path48"
               style="fill:none;stroke:#000000;stroke-width:0.80000001;stroke-linecap:round;stroke-linejoin:bevel;stroke-miterlimit:2;stroke-dasharray:none;stroke-opacity:1"
               d="m 286.85578,58.900162 0,8.429987 1.686,1.685998" /><path
               id="path50"
               style="fill:none;stroke:#000000;stroke-width:0.80000001;stroke-linecap:round;stroke-linejoin:bevel;stroke-miterlimit:2;stroke-dasharray:none;stroke-opacity:1"
               d="m 291.91377,58.900162 0,8.429987 1.686,1.685998" /><path
               id="path52"
               style="fill:none;stroke:#000000;stroke-width:0.80000001;stroke-linecap:round;stroke-linejoin:bevel;stroke-miterlimit:2;stroke-dasharray:none;stroke-opacity:1"
               d="m 298.65776,69.016147 -1.68599,-1.685998 0,-3.371994 1.68599,-1.685998 3.372,0 1.68599,1.685998 0,3.371994 -1.68599,1.685998 -3.372,0 z" /><path
               id="path54"
               style="fill:none;stroke:#000000;stroke-width:0.80000001;stroke-linecap:round;stroke-linejoin:bevel;stroke-miterlimit:2;stroke-dasharray:none;stroke-opacity:1"
               d="m 307.08775,69.016147 5.05799,0 1.686,-1.685998 -1.686,-1.685997 -3.37199,0 -1.686,-1.685997 1.686,-1.685998 5.05799,0" /><path
               id="path56"
               style="fill:none;stroke:#000000;stroke-width:0.80000001;stroke-linecap:round;stroke-linejoin:bevel;stroke-miterlimit:2;stroke-dasharray:none;stroke-opacity:1"
               d="m 323.94772,62.272157 -5.05799,0 -1.686,1.685998 0,3.371994 1.686,1.685998 5.05799,0" /><path
               id="path58"
               style="fill:none;stroke:#000000;stroke-width:0.80000001;stroke-linecap:round;stroke-linejoin:bevel;stroke-miterlimit:2;stroke-dasharray:none;stroke-opacity:1"
               d="m 329.00572,69.016147 -1.686,-1.685998 0,-3.371994 1.686,-1.685998 3.37199,0 1.686,1.685998 0,3.371994 -1.686,1.685998 -3.37199,0 z" /><path
               id="path60"
               style="fill:none;stroke:#000000;stroke-width:0.80000001;stroke-linecap:round;stroke-linejoin:bevel;stroke-miterlimit:2;stroke-dasharray:none;stroke-opacity:1"
               d="m 337.4357,62.272157 0,10.115984" /><path
               id="path62"
               style="fill:none;stroke:#000000;stroke-width:0.80000001;stroke-linecap:round;stroke-linejoin:bevel;stroke-miterlimit:2;stroke-dasharray:none;stroke-opacity:1"
               d="m 337.4357,63.958155 1.686,-1.685998 3.37199,0 1.686,1.685998 0,3.371994 -1.686,1.685998 -5.05799,0" /><path
               id="path64"
               style="fill:none;stroke:#000000;stroke-width:0.80000001;stroke-linecap:round;stroke-linejoin:bevel;stroke-miterlimit:2;stroke-dasharray:none;stroke-opacity:1"
               d="m 347.55169,65.644152 5.05799,0 1.686,-1.685997 -1.686,-1.685998 -3.372,0 -1.68599,1.685998 0,3.371994 1.68599,1.685998 3.372,0" /><path
               id="path66"
               style="fill:none;stroke:#000000;stroke-width:0.80000001;stroke-linecap:square;stroke-linejoin:bevel;stroke-miterlimit:2;stroke-dasharray:none;stroke-opacity:1"
               d="m 200.02692,93.497259 0,65.753901 106.21783,0 0,-65.753901 -106.21783,0 z" /></g><g
             transform="translate(326.47672,179.48312)"
             id="g68"><path
               id="path70"
               style="fill:none;stroke:#000000;stroke-width:0.80000001;stroke-linecap:square;stroke-linejoin:bevel;stroke-miterlimit:10;stroke-dasharray:none;stroke-opacity:1"
               d="M 8.7232713,0 C 8.7232713,-4.8177297 4.8177297,-8.7232713 0,-8.7232713 -4.8177297,-8.7232713 -8.7232713,-4.8177297 -8.7232713,0 -8.7232713,4.8177297 -4.8177297,8.7232713 0,8.7232713 4.8177297,8.7232713 8.7232713,4.8177297 8.7232713,0 Z" /></g><g
             id="g72" /><g
             transform="translate(370.77824,179.48312)"
             id="g74"><path
               id="path76"
               style="fill:none;stroke:#000000;stroke-width:0.80000001;stroke-linecap:square;stroke-linejoin:bevel;stroke-miterlimit:10;stroke-dasharray:none;stroke-opacity:1"
               d="M 8.7232713,0 C 8.7232713,-4.8177297 4.8177297,-8.7232713 0,-8.7232713 -4.8177297,-8.7232713 -8.7232713,-4.8177297 -8.7232713,0 -8.7232713,4.8177297 -4.8177297,8.7232713 0,8.7232713 4.8177297,8.7232713 8.7232713,4.8177297 8.7232713,0 Z" /></g><g
             id="g78" /><g
             transform="matrix(-1,0,0,-1,625.53565,149.31056)"
             id="g80"><path
               id="path82"
               style="fill:none;stroke:#000000;stroke-width:0.80000001;stroke-linecap:square;stroke-linejoin:bevel;stroke-miterlimit:10;stroke-dasharray:none;stroke-opacity:1"
               d="m 44.611404,0 c 0,-11.076945 -19.973206,-20.056583 -44.611404,-20.056583 -24.638198,0 -44.611404,8.979638 -44.611404,20.056583 0,11.076945 19.973206,20.056583 44.611404,20.056583 24.638198,0 44.611404,-8.979638 44.611404,-20.056583 z" /></g><g
             id="g84"><path
               id="path86"
               style="fill:none;stroke:#000000;stroke-width:0.80000001;stroke-linecap:round;stroke-linejoin:bevel;stroke-miterlimit:10;stroke-dasharray:none;stroke-opacity:1"
               d="m 617.10567,114.86686 1.68599,0 0,5.05799 -5.05799,0 -1.68599,-1.68599 0,-6.74399 1.68599,-1.686 5.05799,0" /><path
               id="path88"
               style="fill:none;stroke:#000000;stroke-width:0.80000001;stroke-linecap:round;stroke-linejoin:bevel;stroke-miterlimit:10;stroke-dasharray:none;stroke-opacity:1"
               d="m 622.16366,119.92485 0,-10.11598 5.05799,0 1.686,1.686 0,1.68599 -1.686,1.686 -5.05799,0" /><path
               id="path90"
               style="fill:none;stroke:#000000;stroke-width:0.80000001;stroke-linecap:round;stroke-linejoin:bevel;stroke-miterlimit:10;stroke-dasharray:none;stroke-opacity:1"
               d="m 632.27964,118.23886 1.686,1.68599 3.372,0 1.68599,-1.68599 -6.74399,-6.74399 1.686,-1.686 3.372,0 1.68599,1.686" /><path
               id="path92"
               style="fill:none;stroke:#000000;stroke-width:0.80000001;stroke-linecap:square;stroke-linejoin:bevel;stroke-miterlimit:10;stroke-dasharray:none;stroke-opacity:1"
               d="m 580.92425,149.31056 -61.23779,0 0,94.44692 -148.90822,0 0,-55.55108" /><path
               id="path94"
               style="fill:none;stroke:#000000;stroke-width:0.80000001;stroke-linecap:square;stroke-linejoin:bevel;stroke-miterlimit:10;stroke-dasharray:none;stroke-opacity:1"
               d="m 293.59977,280.64297 0,83.45687 65.7539,0 0,-83.45687 -65.7539,0 z" /><path
               id="path96"
               style="fill:none;stroke:#000000;stroke-width:0.80000001;stroke-linecap:square;stroke-linejoin:bevel;stroke-miterlimit:10;stroke-dasharray:none;stroke-opacity:1"
               d="m 370.77824,243.75748 0,70.56905 -11.42457,0" /><path
               id="path98"
               style="fill:none;stroke:#000000;stroke-width:0.80000001;stroke-linecap:round;stroke-linejoin:bevel;stroke-miterlimit:10;stroke-dasharray:none;stroke-opacity:1"
               d="m 372.84165,328.05386 1.68599,0 0,5.05799 -5.05799,0 -1.68599,-1.686 0,-6.74398 1.68599,-1.686 5.05799,0" /><path
               id="path100"
               style="fill:none;stroke:#000000;stroke-width:0.80000001;stroke-linecap:round;stroke-linejoin:bevel;stroke-miterlimit:10;stroke-dasharray:none;stroke-opacity:1"
               d="m 377.89964,333.11185 0,-10.11598 5.05799,0 1.686,1.686 0,1.68599 -1.686,1.686 -5.05799,0" /><path
               id="path102"
               style="fill:none;stroke:#000000;stroke-width:0.80000001;stroke-linecap:round;stroke-linejoin:bevel;stroke-miterlimit:10;stroke-dasharray:none;stroke-opacity:1"
               d="m 388.01562,333.11185 3.372,0" /><path
               id="path104"
               style="fill:none;stroke:#000000;stroke-width:0.80000001;stroke-linecap:round;stroke-linejoin:bevel;stroke-miterlimit:10;stroke-dasharray:none;stroke-opacity:1"
               d="m 389.70162,333.11185 0,-10.11598" /><path
               id="path106"
               style="fill:none;stroke:#000000;stroke-width:0.80000001;stroke-linecap:round;stroke-linejoin:bevel;stroke-miterlimit:10;stroke-dasharray:none;stroke-opacity:1"
               d="m 388.01562,322.99587 3.372,0" /><path
               id="path108"
               style="fill:none;stroke:#000000;stroke-width:0.80000001;stroke-linecap:round;stroke-linejoin:bevel;stroke-miterlimit:10;stroke-dasharray:none;stroke-opacity:1"
               d="m 394.75961,333.11185 6.74399,0 0,-10.11598 -6.74399,0 0,10.11598 z" /><path
               id="path110"
               style="fill:none;stroke:#000000;stroke-width:0.80000001;stroke-linecap:square;stroke-linejoin:bevel;stroke-miterlimit:10;stroke-dasharray:none;stroke-opacity:1"
               d="m 326.47672,188.2064 0,92.43657" /><path
               id="path112"
               style="fill:none;stroke:#000000;stroke-width:0.80000001;stroke-linecap:round;stroke-linejoin:bevel;stroke-miterlimit:10;stroke-dasharray:none;stroke-opacity:1"
               d="m 290.22778,272.41595 5.05799,0 1.686,-1.686 0,-6.74399 -1.686,-1.686 -5.05799,0" /><path
               id="path114"
               style="fill:none;stroke:#000000;stroke-width:0.80000001;stroke-linecap:round;stroke-linejoin:bevel;stroke-miterlimit:10;stroke-dasharray:none;stroke-opacity:1"
               d="m 291.91377,262.29996 0,10.11599" /><path
               id="path116"
               style="fill:none;stroke:#000000;stroke-width:0.80000001;stroke-linecap:round;stroke-linejoin:bevel;stroke-miterlimit:10;stroke-dasharray:none;stroke-opacity:1"
               d="m 300.34376,272.41595 0,-3.372 3.37199,-6.74399 3.372,6.74399 0,3.372" /><path
               id="path118"
               style="fill:none;stroke:#000000;stroke-width:0.80000001;stroke-linecap:round;stroke-linejoin:bevel;stroke-miterlimit:10;stroke-dasharray:none;stroke-opacity:1"
               d="m 300.34376,269.04395 6.74399,0" /><path
               id="path120"
               style="fill:none;stroke:#000000;stroke-width:0.80000001;stroke-linecap:round;stroke-linejoin:bevel;stroke-miterlimit:10;stroke-dasharray:none;stroke-opacity:1"
               d="m 317.20373,270.72995 -1.68599,1.686 -3.372,0 -1.686,-1.686 0,-6.74399 1.686,-1.686 3.372,0 1.68599,1.686" /><path
               id="path122"
               style="fill:none;stroke:#000000;stroke-width:0.80000001;stroke-linecap:round;stroke-linejoin:bevel;stroke-miterlimit:10;stroke-dasharray:none;stroke-opacity:1"
               d="m 321.41873,335.85938 -10.11599,0 0,-5.05799 1.686,-1.686 1.686,0 1.686,1.686 0,5.05799" /><path
               id="path124"
               style="fill:none;stroke:#000000;stroke-width:0.80000001;stroke-linecap:round;stroke-linejoin:bevel;stroke-miterlimit:10;stroke-dasharray:none;stroke-opacity:1"
               d="m 316.36074,334.17338 5.05799,-5.05799" /><path
               id="path126"
               style="fill:none;stroke:#000000;stroke-width:0.80000001;stroke-linecap:round;stroke-linejoin:bevel;stroke-miterlimit:10;stroke-dasharray:none;stroke-opacity:1"
               d="m 318.04673,325.7434 0,-5.058 -1.68599,-1.68599 -1.686,1.68599 0,3.372 1.686,1.686 3.37199,0 1.686,-1.686 0,-3.372" /><path
               id="path128"
               style="fill:none;stroke:#000000;stroke-width:0.80000001;stroke-linecap:round;stroke-linejoin:bevel;stroke-miterlimit:10;stroke-dasharray:none;stroke-opacity:1"
               d="m 311.30274,308.88342 10.11599,0" /><path
               id="path130"
               style="fill:none;stroke:#000000;stroke-width:0.80000001;stroke-linecap:round;stroke-linejoin:bevel;stroke-miterlimit:10;stroke-dasharray:none;stroke-opacity:1"
               d="m 318.04673,308.88342 -3.37199,3.372 0,1.68599 1.686,1.686 3.37199,0 1.686,-1.686 0,-1.68599 -3.372,-3.372 z" /><path
               id="path132"
               style="fill:none;stroke:#000000;stroke-width:0.80000001;stroke-linecap:round;stroke-linejoin:bevel;stroke-miterlimit:10;stroke-dasharray:none;stroke-opacity:1"
               d="m 338.2787,347.66136 -10.11598,0 0,-5.05799 1.68599,-1.686 1.686,0 1.686,1.686 0,5.05799" /><path
               id="path134"
               style="fill:none;stroke:#000000;stroke-width:0.80000001;stroke-linecap:round;stroke-linejoin:bevel;stroke-miterlimit:10;stroke-dasharray:none;stroke-opacity:1"
               d="m 338.2787,337.54538 -6.74399,0" /><path
               id="path136"
               style="fill:none;stroke:#000000;stroke-width:0.80000001;stroke-linecap:round;stroke-linejoin:bevel;stroke-miterlimit:10;stroke-dasharray:none;stroke-opacity:1"
               d="m 329.84871,337.54538 -1.68599,0" /><path
               id="path138"
               style="fill:none;stroke:#000000;stroke-width:0.80000001;stroke-linecap:round;stroke-linejoin:bevel;stroke-miterlimit:10;stroke-dasharray:none;stroke-opacity:1"
               d="m 328.16272,330.80139 8.42998,0 1.686,-1.686 -1.686,-1.686" /><path
               id="path140"
               style="fill:none;stroke:#000000;stroke-width:0.80000001;stroke-linecap:round;stroke-linejoin:bevel;stroke-miterlimit:10;stroke-dasharray:none;stroke-opacity:1"
               d="m 331.53471,334.17338 0,-6.74399" /><path
               id="path142"
               style="fill:none;stroke:#000000;stroke-width:0.80000001;stroke-linecap:round;stroke-linejoin:bevel;stroke-miterlimit:10;stroke-dasharray:none;stroke-opacity:1"
               d="m 336.5927,318.99941 1.686,1.68599 0,1.686 -1.686,1.686 -3.37199,0 -1.686,-1.686 0,-1.686 1.686,-1.68599 3.37199,0 1.686,-1.686" /><path
               id="path144"
               style="fill:none;stroke:#000000;stroke-width:0.80000001;stroke-linecap:round;stroke-linejoin:bevel;stroke-miterlimit:10;stroke-dasharray:none;stroke-opacity:1"
               d="m 341.6507,313.94141 0,-1.68599 -10.11599,-5.05799" /><path
               id="path146"
               style="fill:none;stroke:#000000;stroke-width:0.80000001;stroke-linecap:round;stroke-linejoin:bevel;stroke-miterlimit:10;stroke-dasharray:none;stroke-opacity:1"
               d="m 338.2787,310.56942 -6.74399,3.37199" /><path
               id="path148"
               style="fill:none;stroke:#000000;stroke-width:0.80000001;stroke-linecap:round;stroke-linejoin:bevel;stroke-miterlimit:10;stroke-dasharray:none;stroke-opacity:1"
               d="m 336.5927,298.76744 1.686,1.686 0,1.68599 -1.686,1.686 -3.37199,0 -1.686,-1.686 0,-1.68599 1.686,-1.686 3.37199,0 1.686,-1.686" /><path
               id="path150"
               style="fill:none;stroke:#000000;stroke-width:0.80000001;stroke-linecap:round;stroke-linejoin:bevel;stroke-miterlimit:10;stroke-dasharray:none;stroke-opacity:1"
               d="m 442.38904,282.29481 0,-10.11598" /><path
               id="path152"
               style="fill:none;stroke:#000000;stroke-width:0.80000001;stroke-linecap:round;stroke-linejoin:bevel;stroke-miterlimit:10;stroke-dasharray:none;stroke-opacity:1"
               d="m 439.01704,272.17883 6.74399,0" /><path
               id="path154"
               style="fill:none;stroke:#000000;stroke-width:0.80000001;stroke-linecap:round;stroke-linejoin:bevel;stroke-miterlimit:10;stroke-dasharray:none;stroke-opacity:1"
               d="m 449.13303,275.55082 0,6.74399" /><path
               id="path156"
               style="fill:none;stroke:#000000;stroke-width:0.80000001;stroke-linecap:round;stroke-linejoin:bevel;stroke-miterlimit:10;stroke-dasharray:none;stroke-opacity:1"
               d="m 449.13303,278.92282 3.37199,-3.372 1.686,0 1.686,1.686" /><path
               id="path158"
               style="fill:none;stroke:#000000;stroke-width:0.80000001;stroke-linecap:round;stroke-linejoin:bevel;stroke-miterlimit:10;stroke-dasharray:none;stroke-opacity:1"
               d="m 464.307,280.60882 -1.68599,1.68599 -1.686,0 -1.686,-1.68599 0,-3.372 1.686,-1.686 1.686,0 1.68599,1.686 0,3.372 1.686,1.68599" /><path
               id="path160"
               style="fill:none;stroke:#000000;stroke-width:0.80000001;stroke-linecap:round;stroke-linejoin:bevel;stroke-miterlimit:10;stroke-dasharray:none;stroke-opacity:1"
               d="m 469.365,275.55082 0,6.74399" /><path
               id="path162"
               style="fill:none;stroke:#000000;stroke-width:0.80000001;stroke-linecap:round;stroke-linejoin:bevel;stroke-miterlimit:10;stroke-dasharray:none;stroke-opacity:1"
               d="m 469.365,278.92282 3.37199,-3.372 1.686,0 1.686,1.686 0,5.05799" /><path
               id="path164"
               style="fill:none;stroke:#000000;stroke-width:0.80000001;stroke-linecap:round;stroke-linejoin:bevel;stroke-miterlimit:10;stroke-dasharray:none;stroke-opacity:1"
               d="m 479.48098,282.29481 5.05799,0 1.686,-1.68599 -1.686,-1.686 -3.37199,0 -1.686,-1.686 1.686,-1.686 5.05799,0" /><path
               id="path166"
               style="fill:none;stroke:#000000;stroke-width:0.80000001;stroke-linecap:round;stroke-linejoin:bevel;stroke-miterlimit:10;stroke-dasharray:none;stroke-opacity:1"
               d="m 489.59697,275.55082 0,6.74399" /><path
               id="path168"
               style="fill:none;stroke:#000000;stroke-width:0.80000001;stroke-linecap:round;stroke-linejoin:bevel;stroke-miterlimit:10;stroke-dasharray:none;stroke-opacity:1"
               d="m 489.59697,277.23682 1.68599,-1.686 1.686,1.686 0,1.686" /><path
               id="path170"
               style="fill:none;stroke:#000000;stroke-width:0.80000001;stroke-linecap:round;stroke-linejoin:bevel;stroke-miterlimit:10;stroke-dasharray:none;stroke-opacity:1"
               d="m 492.96896,277.23682 1.686,-1.686 1.68599,1.686 0,5.05799" /><path
               id="path172"
               style="fill:none;stroke:#000000;stroke-width:0.80000001;stroke-linecap:round;stroke-linejoin:bevel;stroke-miterlimit:10;stroke-dasharray:none;stroke-opacity:1"
               d="m 499.71295,282.29481 0,-6.74399" /><path
               id="path174"
               style="fill:none;stroke:#000000;stroke-width:0.80000001;stroke-linecap:round;stroke-linejoin:bevel;stroke-miterlimit:10;stroke-dasharray:none;stroke-opacity:1"
               d="m 499.71295,273.86483 0,-1.686" /><path
               id="path176"
               style="fill:none;stroke:#000000;stroke-width:0.80000001;stroke-linecap:round;stroke-linejoin:bevel;stroke-miterlimit:10;stroke-dasharray:none;stroke-opacity:1"
               d="m 506.45694,272.17883 0,8.42999 1.686,1.68599 1.68599,-1.68599" /><path
               id="path178"
               style="fill:none;stroke:#000000;stroke-width:0.80000001;stroke-linecap:round;stroke-linejoin:bevel;stroke-miterlimit:10;stroke-dasharray:none;stroke-opacity:1"
               d="m 503.08494,275.55082 6.74399,0" /><path
               id="path180"
               style="fill:none;stroke:#000000;stroke-width:0.80000001;stroke-linecap:round;stroke-linejoin:bevel;stroke-miterlimit:10;stroke-dasharray:none;stroke-opacity:1"
               d="m 526.68891,272.17883 0,8.42999 1.68599,1.68599 1.686,-1.68599" /><path
               id="path182"
               style="fill:none;stroke:#000000;stroke-width:0.80000001;stroke-linecap:round;stroke-linejoin:bevel;stroke-miterlimit:10;stroke-dasharray:none;stroke-opacity:1"
               d="m 523.31691,275.55082 6.74399,0" /><path
               id="path184"
               style="fill:none;stroke:#000000;stroke-width:0.80000001;stroke-linecap:round;stroke-linejoin:bevel;stroke-miterlimit:10;stroke-dasharray:none;stroke-opacity:1"
               d="m 533.4329,282.29481 0,-6.74399" /><path
               id="path186"
               style="fill:none;stroke:#000000;stroke-width:0.80000001;stroke-linecap:round;stroke-linejoin:bevel;stroke-miterlimit:10;stroke-dasharray:none;stroke-opacity:1"
               d="m 533.4329,273.86483 0,-1.686" /><path
               id="path188"
               style="fill:none;stroke:#000000;stroke-width:0.80000001;stroke-linecap:round;stroke-linejoin:bevel;stroke-miterlimit:10;stroke-dasharray:none;stroke-opacity:1"
               d="m 536.80489,275.55082 0,6.74399" /><path
               id="path190"
               style="fill:none;stroke:#000000;stroke-width:0.80000001;stroke-linecap:round;stroke-linejoin:bevel;stroke-miterlimit:10;stroke-dasharray:none;stroke-opacity:1"
               d="m 536.80489,277.23682 1.686,-1.686 1.686,1.686 0,1.686" /><path
               id="path192"
               style="fill:none;stroke:#000000;stroke-width:0.80000001;stroke-linecap:round;stroke-linejoin:bevel;stroke-miterlimit:10;stroke-dasharray:none;stroke-opacity:1"
               d="m 540.17689,277.23682 1.68599,-1.686 1.686,1.686 0,5.05799" /><path
               id="path194"
               style="fill:none;stroke:#000000;stroke-width:0.80000001;stroke-linecap:round;stroke-linejoin:bevel;stroke-miterlimit:10;stroke-dasharray:none;stroke-opacity:1"
               d="m 546.92088,282.29481 0,-6.74399" /><path
               id="path196"
               style="fill:none;stroke:#000000;stroke-width:0.80000001;stroke-linecap:round;stroke-linejoin:bevel;stroke-miterlimit:10;stroke-dasharray:none;stroke-opacity:1"
               d="m 546.92088,273.86483 0,-1.686" /><path
               id="path198"
               style="fill:none;stroke:#000000;stroke-width:0.80000001;stroke-linecap:round;stroke-linejoin:bevel;stroke-miterlimit:10;stroke-dasharray:none;stroke-opacity:1"
               d="m 550.29287,275.55082 0,6.74399" /><path
               id="path200"
               style="fill:none;stroke:#000000;stroke-width:0.80000001;stroke-linecap:round;stroke-linejoin:bevel;stroke-miterlimit:10;stroke-dasharray:none;stroke-opacity:1"
               d="m 550.29287,278.92282 3.372,-3.372 1.68599,0 1.686,1.686 0,5.05799" /><path
               id="path202"
               style="fill:none;stroke:#000000;stroke-width:0.80000001;stroke-linecap:round;stroke-linejoin:bevel;stroke-miterlimit:10;stroke-dasharray:none;stroke-opacity:1"
               d="m 560.40886,283.98081 1.68599,1.686 3.372,0 1.68599,-1.686 0,-6.74399 -1.68599,-1.686 -3.372,0 -1.68599,1.686 0,3.372 1.68599,1.68599 5.05799,0" /><path
               id="path204"
               style="fill:none;stroke:#000000;stroke-width:0.80000001;stroke-linecap:round;stroke-linejoin:bevel;stroke-miterlimit:10;stroke-dasharray:none;stroke-opacity:1"
               d="m 584.01282,272.17883 0,8.42999 1.686,1.68599 1.68599,-1.68599" /><path
               id="path206"
               style="fill:none;stroke:#000000;stroke-width:0.80000001;stroke-linecap:round;stroke-linejoin:bevel;stroke-miterlimit:10;stroke-dasharray:none;stroke-opacity:1"
               d="m 580.64082,275.55082 6.74399,0" /><path
               id="path208"
               style="fill:none;stroke:#000000;stroke-width:0.80000001;stroke-linecap:round;stroke-linejoin:bevel;stroke-miterlimit:10;stroke-dasharray:none;stroke-opacity:1"
               d="m 590.75681,278.92282 5.05799,0 1.686,-1.686 -1.686,-1.686 -3.372,0 -1.68599,1.686 0,3.372 1.68599,1.68599 3.372,0" /><path
               id="path210"
               style="fill:none;stroke:#000000;stroke-width:0.80000001;stroke-linecap:round;stroke-linejoin:bevel;stroke-miterlimit:10;stroke-dasharray:none;stroke-opacity:1"
               d="m 600.87279,282.29481 5.05799,0 1.686,-1.68599 -1.686,-1.686 -3.37199,0 -1.686,-1.686 1.686,-1.686 5.05799,0" /><path
               id="path212"
               style="fill:none;stroke:#000000;stroke-width:0.80000001;stroke-linecap:round;stroke-linejoin:bevel;stroke-miterlimit:10;stroke-dasharray:none;stroke-opacity:1"
               d="m 614.36077,272.17883 0,8.42999 1.686,1.68599 1.686,-1.68599" /><path
               id="path214"
               style="fill:none;stroke:#000000;stroke-width:0.80000001;stroke-linecap:round;stroke-linejoin:bevel;stroke-miterlimit:10;stroke-dasharray:none;stroke-opacity:1"
               d="m 610.98878,275.55082 6.74399,0" /><path
               id="path216"
               style="fill:none;stroke:#000000;stroke-width:0.80000001;stroke-linecap:round;stroke-linejoin:bevel;stroke-miterlimit:10;stroke-dasharray:none;stroke-opacity:1"
               d="m 439.01704,297.46879 6.74399,-6.74399" /><path
               id="path218"
               style="fill:none;stroke:#000000;stroke-width:0.80000001;stroke-linecap:round;stroke-linejoin:bevel;stroke-miterlimit:10;stroke-dasharray:none;stroke-opacity:1"
               d="m 442.38904,290.7248 0,6.74399" /><path
               id="path220"
               style="fill:none;stroke:#000000;stroke-width:0.80000001;stroke-linecap:round;stroke-linejoin:bevel;stroke-miterlimit:10;stroke-dasharray:none;stroke-opacity:1"
               d="m 445.76103,297.46879 -6.74399,-6.74399" /><path
               id="path222"
               style="fill:none;stroke:#000000;stroke-width:0.80000001;stroke-linecap:round;stroke-linejoin:bevel;stroke-miterlimit:10;stroke-dasharray:none;stroke-opacity:1"
               d="m 439.01704,294.09679 6.74399,0" /><path
               id="path224"
               style="fill:none;stroke:#000000;stroke-width:0.80000001;stroke-linecap:round;stroke-linejoin:bevel;stroke-miterlimit:10;stroke-dasharray:none;stroke-opacity:1"
               d="m 459.24901,300.84079 1.686,1.68599 1.686,0 1.68599,-1.68599 0,-8.42999" /><path
               id="path226"
               style="fill:none;stroke:#000000;stroke-width:0.80000001;stroke-linecap:round;stroke-linejoin:bevel;stroke-miterlimit:10;stroke-dasharray:none;stroke-opacity:1"
               d="m 464.307,290.7248 0,-1.686" /><path
               id="path228"
               style="fill:none;stroke:#000000;stroke-width:0.80000001;stroke-linecap:round;stroke-linejoin:bevel;stroke-miterlimit:10;stroke-dasharray:none;stroke-opacity:1"
               d="m 467.679,299.15479 0,-6.74399" /><path
               id="path230"
               style="fill:none;stroke:#000000;stroke-width:0.80000001;stroke-linecap:round;stroke-linejoin:bevel;stroke-miterlimit:10;stroke-dasharray:none;stroke-opacity:1"
               d="m 467.679,290.7248 0,-1.686" /><path
               id="path232"
               style="fill:none;stroke:#000000;stroke-width:0.80000001;stroke-linecap:round;stroke-linejoin:bevel;stroke-miterlimit:10;stroke-dasharray:none;stroke-opacity:1"
               d="m 474.42299,289.0388 0,8.42999 1.686,1.686 1.68599,-1.686" /><path
               id="path234"
               style="fill:none;stroke:#000000;stroke-width:0.80000001;stroke-linecap:round;stroke-linejoin:bevel;stroke-miterlimit:10;stroke-dasharray:none;stroke-opacity:1"
               d="m 471.05099,292.4108 6.74399,0" /><path
               id="path236"
               style="fill:none;stroke:#000000;stroke-width:0.80000001;stroke-linecap:round;stroke-linejoin:bevel;stroke-miterlimit:10;stroke-dasharray:none;stroke-opacity:1"
               d="m 484.53897,289.0388 0,8.42999 1.686,1.686 1.686,-1.686" /><path
               id="path238"
               style="fill:none;stroke:#000000;stroke-width:0.80000001;stroke-linecap:round;stroke-linejoin:bevel;stroke-miterlimit:10;stroke-dasharray:none;stroke-opacity:1"
               d="m 481.16698,292.4108 6.74399,0" /><path
               id="path240"
               style="fill:none;stroke:#000000;stroke-width:0.80000001;stroke-linecap:round;stroke-linejoin:bevel;stroke-miterlimit:10;stroke-dasharray:none;stroke-opacity:1"
               d="m 491.28296,295.78279 5.05799,0 1.686,-1.686 -1.686,-1.68599 -3.37199,0 -1.686,1.68599 0,3.372 1.686,1.686 3.37199,0" /><path
               id="path242"
               style="fill:none;stroke:#000000;stroke-width:0.80000001;stroke-linecap:round;stroke-linejoin:bevel;stroke-miterlimit:10;stroke-dasharray:none;stroke-opacity:1"
               d="m 501.39895,292.4108 0,6.74399" /><path
               id="path244"
               style="fill:none;stroke:#000000;stroke-width:0.80000001;stroke-linecap:round;stroke-linejoin:bevel;stroke-miterlimit:10;stroke-dasharray:none;stroke-opacity:1"
               d="m 501.39895,295.78279 3.37199,-3.37199 1.686,0 1.686,1.68599" /><path
               id="path246"
               style="fill:none;stroke:#000000;stroke-width:0.80000001;stroke-linecap:round;stroke-linejoin:bevel;stroke-miterlimit:10;stroke-dasharray:none;stroke-opacity:1"
               d="m 439.01704,314.32876 6.74399,-6.74399" /><path
               id="path248"
               style="fill:none;stroke:#000000;stroke-width:0.80000001;stroke-linecap:round;stroke-linejoin:bevel;stroke-miterlimit:10;stroke-dasharray:none;stroke-opacity:1"
               d="m 442.38904,307.58477 0,6.74399" /><path
               id="path250"
               style="fill:none;stroke:#000000;stroke-width:0.80000001;stroke-linecap:round;stroke-linejoin:bevel;stroke-miterlimit:10;stroke-dasharray:none;stroke-opacity:1"
               d="m 445.76103,314.32876 -6.74399,-6.74399" /><path
               id="path252"
               style="fill:none;stroke:#000000;stroke-width:0.80000001;stroke-linecap:round;stroke-linejoin:bevel;stroke-miterlimit:10;stroke-dasharray:none;stroke-opacity:1"
               d="m 439.01704,310.95677 6.74399,0" /><path
               id="path254"
               style="fill:none;stroke:#000000;stroke-width:0.80000001;stroke-linecap:round;stroke-linejoin:bevel;stroke-miterlimit:10;stroke-dasharray:none;stroke-opacity:1"
               d="m 459.24901,305.89878 0,10.11598" /><path
               id="path256"
               style="fill:none;stroke:#000000;stroke-width:0.80000001;stroke-linecap:round;stroke-linejoin:bevel;stroke-miterlimit:10;stroke-dasharray:none;stroke-opacity:1"
               d="m 459.24901,312.64277 3.372,3.37199 1.68599,0 1.686,-1.686 0,-3.37199 -1.686,-1.686 -1.68599,0 -3.372,3.372 z" /><path
               id="path258"
               style="fill:none;stroke:#000000;stroke-width:0.80000001;stroke-linecap:round;stroke-linejoin:bevel;stroke-miterlimit:10;stroke-dasharray:none;stroke-opacity:1"
               d="m 469.365,316.01476 0,-6.74399" /><path
               id="path260"
               style="fill:none;stroke:#000000;stroke-width:0.80000001;stroke-linecap:round;stroke-linejoin:bevel;stroke-miterlimit:10;stroke-dasharray:none;stroke-opacity:1"
               d="m 469.365,307.58477 0,-1.68599" /><path
               id="path262"
               style="fill:none;stroke:#000000;stroke-width:0.80000001;stroke-linecap:round;stroke-linejoin:bevel;stroke-miterlimit:10;stroke-dasharray:none;stroke-opacity:1"
               d="m 477.79498,314.32876 -1.68599,1.686 -1.686,0 -1.686,-1.686 0,-3.37199 1.686,-1.686 1.686,0 1.68599,1.686 0,3.37199 1.686,1.686" /><path
               id="path264"
               style="fill:none;stroke:#000000;stroke-width:0.80000001;stroke-linecap:round;stroke-linejoin:bevel;stroke-miterlimit:10;stroke-dasharray:none;stroke-opacity:1"
               d="m 482.85298,316.01476 5.05799,0 1.686,-1.686 -1.686,-1.68599 -3.372,0 -1.68599,-1.686 1.68599,-1.686 5.058,0" /></g></g></g><g
         id="g266"><g
           id="g268" /></g><g
         id="g270"><g
           clip-path="url(#clipPath274)"
           id="g272"><g
             id="g278"><path
               id="path280"
               style="fill:none;stroke:#000000;stroke-width:0.80000001;stroke-linecap:square;stroke-linejoin:bevel;stroke-miterlimit:2;stroke-dasharray:none;stroke-opacity:1"
               d="m 180,377 0,-331 495,0 0,331 -495,0 z" /></g></g></g><g
         id="g282"><g
           id="g284" /></g></g></g></svg>